M48
INCH,TZ
T1C0.016
T2C0.031
T3C0.039
T4C0.108
%
G90
G05
T1
X36320Y-34620
X36570Y-31870
X36570Y-32620
X36570Y-34870
X36820Y-38620
X36820Y-53370
X37070Y-19870
X37070Y-19870
X37070Y-20370
X37070Y-21748
X37070Y-36120
X37320Y-29620
X37320Y-31870
X37320Y-35870
X37320Y-38120
X37320Y-47370
X37320Y-47870
X37320Y-48870
X37820Y-37370
X38570Y-37370
X38570Y-43620
X38570Y-45870
X38570Y-49620
X38570Y-50870
X38820Y-31870
X38820Y-45620
X39070Y-26870
X39070Y-29120
X39070Y-29120
X39070Y-29120
X39070Y-49870
X39070Y-50870
X39570Y-38870
X39820Y-30370
X39820Y-30870
X40070Y-32120
X40070Y-43120
X40320Y-45620
X40320Y-47870
X40570Y-35870
X40570Y-48870
X40820Y-45120
X40820Y-50620
X41070Y-27120
X41070Y-33370
X41070Y-44620
X41320Y-30370
X41320Y-37120
X41320Y-38370
X41320Y-48620
X41320Y-50870
X41570Y-33120
X41570Y-36870
X41570Y-38620
X41820Y-32120
X41820Y-32870
X41820Y-37120
X41820Y-38870
X42070Y-32370
X42070Y-33120
X42070Y-36870
X42070Y-39120
X42070Y-48620
X42570Y-30120
X42570Y-30870
X42570Y-46620
X42820Y-37120
X43070Y-33620
X43070Y-37370
X43570Y-37370
X44070Y-37370
X44070Y-49120
X44498Y-52370
X44539Y-48370
X44570Y-49120
X44570Y-51870
X44820Y-52120
X44851Y-48620
X45570Y-51870
X45570Y-52370
X46320Y-47120
X46320Y-48620
X46570Y-33120
X46570Y-50370
X47320Y-33120
X47320Y-48620
X47570Y-34120
X47570Y-37870
X47820Y-37620
X48070Y-31620
X48570Y-39870
X48570Y-43370
X48570Y-45870
X48820Y-27120
X48820Y-29370
X48820Y-48370
X49570Y-30870
X49570Y-31370
X49570Y-32370
X49570Y-47120
X49820Y-32120
X49820Y-39120
X49820Y-43120
X49820Y-44120
X50070Y-38870
X50070Y-47620
X50073Y-48367
X50570Y-32370
X50570Y-44120
X50570Y-44620
X50570Y-45370
X50820Y-27120
X50820Y-32120
X50820Y-39120
X51070Y-19244
X51070Y-38870
X51320Y-30870
X51320Y-31370
X51320Y-47120
X51570Y-21311
X51754Y-47625
X52157Y-19244
X52261Y-21311
X52320Y-30120
X52320Y-46620
X54070Y-33870
X55557Y-48234
X55820Y-33120
X56070Y-37620
X56320Y-48370
X56320Y-49120
X56411Y-37961
X56570Y-33120
X57570Y-31620
X57570Y-51620
X58320Y-39620
X58320Y-43620
X58320Y-45870
X58570Y-27120
X58570Y-29120
X58820Y-46870
X59070Y-30870
X59070Y-45870
X59070Y-49870
X59070Y-51620
X59320Y-31370
X59320Y-32370
X59570Y-32120
X59570Y-39120
X59570Y-43120
X59570Y-44120
X59570Y-47167
X59820Y-38870
X60070Y-44870
X60320Y-32370
X60320Y-44120
X60320Y-44620
X60320Y-45370
X60320Y-46370
X60570Y-27120
X60570Y-32120
X60570Y-39120
X60570Y-49870
X60820Y-38870
X61070Y-30870
X61070Y-31370
X61320Y-46870
X61820Y-48620
X62070Y-30120
X62070Y-46620
X62320Y-47870
X62320Y-48620
X63070Y-51620
X63570Y-48620
X63570Y-49370
X63570Y-49870
X63820Y-33620
X64070Y-49870
X64070Y-51120
X65320Y-33120
X65542Y-21311
X65542Y-22092
X65570Y-37620
X65820Y-37870
X66070Y-33120
X66320Y-47870
X66527Y-19244
X66570Y-48370
X66820Y-48120
X67320Y-31620
X67320Y-34120
X67708Y-19244
X67820Y-48120
X67971Y-27370
X68070Y-28120
X68070Y-29370
X68070Y-43620
X68070Y-45870
X68820Y-30870
X68820Y-40370
X68820Y-44120
X69070Y-32370
X69320Y-32120
X69320Y-44120
X69570Y-47620
X70070Y-32370
X70070Y-38120
X70070Y-44120
X70070Y-44620
X70070Y-45370
X70320Y-32120
X70320Y-46870
X70570Y-30620
X70570Y-31870
X70570Y-34120
X70570Y-49370
X71070Y-30620
X71070Y-47120
X71320Y-34120
X71570Y-49370
X71820Y-36370
X72320Y-36370
T2
X35820Y-23120
X35820Y-24120
X35820Y-25120
X35820Y-26120
X35820Y-27120
X35820Y-28120
X35820Y-29120
X35820Y-30120
X35820Y-31120
X35820Y-39620
X35820Y-40620
X35820Y-41620
X35820Y-42620
X35820Y-43620
X35820Y-44620
X35820Y-45620
X35820Y-46620
X35820Y-47620
X43820Y-23120
X43820Y-24120
X43820Y-25120
X43820Y-26120
X43820Y-27120
X43820Y-28120
X43820Y-29120
X43820Y-30120
X43820Y-31120
X43820Y-39620
X43820Y-40620
X43820Y-41620
X43820Y-42620
X43820Y-43620
X43820Y-44620
X43820Y-45620
X43820Y-46620
X43820Y-47620
X45570Y-23118
X45570Y-24118
X45570Y-25118
X45570Y-26118
X45570Y-27118
X45570Y-28118
X45570Y-29118
X45570Y-30118
X45570Y-31118
X45570Y-39620
X45570Y-40620
X45570Y-41620
X45570Y-42620
X45570Y-43620
X45570Y-44620
X45570Y-45620
X45570Y-46620
X45570Y-47620
X52440Y-52496
X52440Y-53496
X53440Y-52496
X53440Y-53496
X53570Y-23118
X53570Y-24118
X53570Y-25118
X53570Y-26118
X53570Y-27118
X53570Y-28118
X53570Y-29118
X53570Y-30118
X53570Y-31118
X53570Y-39620
X53570Y-40620
X53570Y-41620
X53570Y-42620
X53570Y-43620
X53570Y-44620
X53570Y-45620
X53570Y-46620
X53570Y-47620
X54440Y-52496
X54440Y-53496
X55320Y-23120
X55320Y-24120
X55320Y-25120
X55320Y-26120
X55320Y-27120
X55320Y-28120
X55320Y-29120
X55320Y-30120
X55320Y-31120
X55320Y-39620
X55320Y-40620
X55320Y-41620
X55320Y-42620
X55320Y-43620
X55320Y-44620
X55320Y-45620
X55320Y-46620
X55320Y-47620
X55440Y-52496
X55440Y-53496
X56440Y-52496
X56440Y-53496
X57440Y-52496
X57440Y-53496
X58440Y-52496
X58440Y-53496
X59440Y-52496
X59440Y-53496
X60440Y-52496
X60440Y-53496
X61440Y-52496
X61440Y-53496
X62440Y-52496
X62440Y-53496
X63320Y-23120
X63320Y-24120
X63320Y-25120
X63320Y-26120
X63320Y-27120
X63320Y-28120
X63320Y-29120
X63320Y-30120
X63320Y-31120
X63320Y-39620
X63320Y-40620
X63320Y-41620
X63320Y-42620
X63320Y-43620
X63320Y-44620
X63320Y-45620
X63320Y-46620
X63320Y-47620
X63440Y-52496
X63440Y-53496
X64440Y-52496
X64440Y-53496
X65070Y-23120
X65070Y-24120
X65070Y-25120
X65070Y-26120
X65070Y-27120
X65070Y-28120
X65070Y-29120
X65070Y-30120
X65070Y-31120
X65070Y-39620
X65070Y-40620
X65070Y-41620
X65070Y-42620
X65070Y-43620
X65070Y-44620
X65070Y-45620
X65070Y-46620
X65070Y-47620
X65440Y-52496
X65440Y-53496
X66440Y-52496
X66440Y-53496
X67440Y-52496
X67440Y-53496
X68440Y-52496
X68440Y-53496
X69440Y-52496
X69440Y-53496
X70440Y-52496
X70440Y-53496
X71440Y-52496
X71440Y-53496
X73070Y-23120
X73070Y-24120
X73070Y-25120
X73070Y-26120
X73070Y-27120
X73070Y-28120
X73070Y-29120
X73070Y-30120
X73070Y-31120
X73070Y-39620
X73070Y-40620
X73070Y-41620
X73070Y-42620
X73070Y-43620
X73070Y-44620
X73070Y-45620
X73070Y-46620
X73070Y-47620
T3
X36802Y-55464
X37802Y-55464
X41724Y-55464
X42724Y-55464
X46645Y-55464
X47645Y-55464
X51550Y-55464
X52550Y-55464
X56487Y-55464
X57487Y-55464
X61393Y-55464
X62393Y-55464
X66314Y-55464
X67314Y-55464
X71251Y-55464
X72251Y-55464
T4
X50523Y-52996
X73357Y-52996
T3
X68692Y-19638G85X68692Y-18851
G05
X70267Y-17394G85X69480Y-17394
G05
X71054Y-19638G85X71054Y-18851
G05
T0
M30
