M48
INCH,TZ
T1C0.016
T2C0.031
T3C0.039
%
G90
G05
T1
X41142Y-41929
X41339Y-23622
X42451Y-23622
X42594Y-26772
X42594Y-43307
X42717Y-35630
X42911Y-50984
X43110Y-39961
X43504Y-40748
X43701Y-35978
X43898Y-33120
X43898Y-49606
X44094Y-31496
X44094Y-41929
X44094Y-44291
X44094Y-48031
X44488Y-53740
X44488Y-56496
X45079Y-35039
X45079Y-38976
X45276Y-34449
X45472Y-36220
X45866Y-36614
X45906Y-39249
X46128Y-49016
X46331Y-51181
X46457Y-34843
X46457Y-37008
X46654Y-34449
X47047Y-39567
X47244Y-34843
X47244Y-35433
X47638Y-52559
X47638Y-54724
X48031Y-39567
X48031Y-43307
X48031Y-50394
X48031Y-51575
X48622Y-36292
X49016Y-36614
X50197Y-35433
X50394Y-56496
X51378Y-35433
X51575Y-37402
X51575Y-53346
X51772Y-37795
X54011Y-26772
X54011Y-43307
X54724Y-35827
X55315Y-33071
X55315Y-49606
X55512Y-31496
X55512Y-48031
X55512Y-52953
X55512Y-54796
X55709Y-50197
X55906Y-34252
X56102Y-48228
X56102Y-49213
X56102Y-50984
X56102Y-52605
X56299Y-51969
X56299Y-55118
X56299Y-55906
X56496Y-52605
X56693Y-36220
X56693Y-55115
X56693Y-55906
X56693Y-56496
X56890Y-52605
X57087Y-37008
X57087Y-54331
X57430Y-36614
X57480Y-50000
X57654Y-48425
X57677Y-48948
X57677Y-50394
X57874Y-37008
X58071Y-52756
X58268Y-34449
X58661Y-50787
X60236Y-23622
X61024Y-23622
X61417Y-25984
X61417Y-42520
X61543Y-51969
X61614Y-35433
X62205Y-25984
X62205Y-42520
X62992Y-25984
X62992Y-35433
X62992Y-42520
X63189Y-37402
X65429Y-26772
X65429Y-43307
X66142Y-35827
X66732Y-33071
X66732Y-49606
X66929Y-31496
X66929Y-48031
X67323Y-34252
X67323Y-52559
X67520Y-55906
X67717Y-51575
X68110Y-36220
X68491Y-49975
X68504Y-37008
X68504Y-50591
X68701Y-51181
X68848Y-36614
X68848Y-48300
X69094Y-49409
X69094Y-55906
X69291Y-37008
X69291Y-54528
X69685Y-53469
X69882Y-34252
X70204Y-53469
X70472Y-50197
X70669Y-54405
X70866Y-51969
X71260Y-53469
X72835Y-35433
X73425Y-56102
X73819Y-37402
X74213Y-35433
X76575Y-51969
X76846Y-26772
X76846Y-43307
X76969Y-52605
X77559Y-40945
X78150Y-33071
X78150Y-49606
X78346Y-31496
X78346Y-48031
X78346Y-48819
X78346Y-52165
X78543Y-32283
X78543Y-34055
X79134Y-35827
X79134Y-40945
X79331Y-25787
X79650Y-52362
X79724Y-32283
X79921Y-25787
X79921Y-48819
X79921Y-50984
X80118Y-51575
X80118Y-51575
X80118Y-51575
X80118Y-54331
X80189Y-37008
X80512Y-36614
X81102Y-25000
X81102Y-26772
X81102Y-36220
X81496Y-36614
X81890Y-33858
X81890Y-37008
X82677Y-36417
X82874Y-42717
T2
X41079Y-27102
X41079Y-28102
X41079Y-29102
X41079Y-30102
X41079Y-31102
X41079Y-32102
X41079Y-33102
X41079Y-34102
X41079Y-35102
X41079Y-43638
X41079Y-44638
X41079Y-45638
X41079Y-46638
X41079Y-47638
X41079Y-48638
X41079Y-49638
X41079Y-50638
X41079Y-51638
X49079Y-27102
X49079Y-28102
X49079Y-29102
X49079Y-30102
X49079Y-31102
X49079Y-32102
X49079Y-33102
X49079Y-34102
X49079Y-35102
X49079Y-43638
X49079Y-44638
X49079Y-45638
X49079Y-46638
X49079Y-47638
X49079Y-48638
X49079Y-49638
X49079Y-50638
X49079Y-51638
X52496Y-27102
X52496Y-28102
X52496Y-29102
X52496Y-30102
X52496Y-31102
X52496Y-32102
X52496Y-33102
X52496Y-34102
X52496Y-35102
X52496Y-43638
X52496Y-44638
X52496Y-45638
X52496Y-46638
X52496Y-47638
X52496Y-48638
X52496Y-49638
X52496Y-50638
X52496Y-51638
X60496Y-27102
X60496Y-28102
X60496Y-29102
X60496Y-30102
X60496Y-31102
X60496Y-32102
X60496Y-33102
X60496Y-34102
X60496Y-35102
X60496Y-43638
X60496Y-44638
X60496Y-45638
X60496Y-46638
X60496Y-47638
X60496Y-48638
X60496Y-49638
X60496Y-50638
X60496Y-51638
X62914Y-56539
X62914Y-57539
X63913Y-27102
X63913Y-28102
X63913Y-29102
X63913Y-30102
X63913Y-31102
X63913Y-32102
X63913Y-33102
X63913Y-34102
X63913Y-35102
X63913Y-43638
X63913Y-44638
X63913Y-45638
X63913Y-46638
X63913Y-47638
X63913Y-48638
X63913Y-49638
X63913Y-50638
X63913Y-51638
X63914Y-56539
X63914Y-57539
X64914Y-56539
X64914Y-57539
X65914Y-56539
X65914Y-57539
X66914Y-56539
X66914Y-57539
X67914Y-56539
X67914Y-57539
X68914Y-56539
X68914Y-57539
X69914Y-56539
X69914Y-57539
X70914Y-56539
X70914Y-57539
X71913Y-27102
X71913Y-28102
X71913Y-29102
X71913Y-30102
X71913Y-31102
X71913Y-32102
X71913Y-33102
X71913Y-34102
X71913Y-35102
X71913Y-43638
X71913Y-44638
X71913Y-45638
X71913Y-46638
X71913Y-47638
X71913Y-48638
X71913Y-49638
X71913Y-50638
X71913Y-51638
X71914Y-56539
X71914Y-57539
X72914Y-56539
X72914Y-57539
X73914Y-56539
X73914Y-57539
X74914Y-56539
X74914Y-57539
X75331Y-27102
X75331Y-28102
X75331Y-29102
X75331Y-30102
X75331Y-31102
X75331Y-32102
X75331Y-33102
X75331Y-34102
X75331Y-35102
X75331Y-43638
X75331Y-44638
X75331Y-45638
X75331Y-46638
X75331Y-47638
X75331Y-48638
X75331Y-49638
X75331Y-50638
X75331Y-51638
X75914Y-56539
X75914Y-57539
X76914Y-56539
X76914Y-57539
X77914Y-56539
X77914Y-57539
X78914Y-56539
X78914Y-57539
X79914Y-56539
X79914Y-57539
X80914Y-56539
X80914Y-57539
X81914Y-56539
X81914Y-57539
X83331Y-27102
X83331Y-28102
X83331Y-29102
X83331Y-30102
X83331Y-31102
X83331Y-32102
X83331Y-33102
X83331Y-34102
X83331Y-35102
X83331Y-43638
X83331Y-44638
X83331Y-45638
X83331Y-46638
X83331Y-47638
X83331Y-48638
X83331Y-49638
X83331Y-50638
X83331Y-51638
T3
X42224Y-59114
X42224Y-60114
X47933Y-59114
X47933Y-60114
X53642Y-59114
X53642Y-60114
X59350Y-59114
X59350Y-60114
X65059Y-59114
X65059Y-60114
X70768Y-59114
X70768Y-60114
X76476Y-59114
X76476Y-60114
X82185Y-59114
X82185Y-60114
T3
X79725Y-22716G85X79725Y-21929
G05
X81299Y-20472G85X80512Y-20472
G05
X82087Y-22716G85X82087Y-21929
G05
T0
M30
